<svg width="56" height="56" viewBox="0 0 56 56" fill="none" xmlns="http://www.w3.org/2000/svg">
<g opacity="0.5">
<rect width="56" height="56" rx="28" fill="#071A21"/>
<path fill-rule="evenodd" clip-rule="evenodd" d="M19.576 18.9268C19.082 18.9268 18.772 19.4601 19.0164 19.8894L26.4875 33.0093V18.9268H19.576ZM29.4144 18.9268V33.0326L36.9346 19.8905C37.1802 19.4613 36.8703 18.9268 36.3757 18.9268H29.4144ZM16.4731 21.3377C15.1176 18.9572 16.8367 16 19.576 16H36.3757C39.1183 16 40.8371 18.9637 39.4749 21.3442L29.2211 39.2634C28.9602 39.7194 28.4748 40.0005 27.9494 40C27.424 39.9994 26.9393 39.7173 26.6793 39.2607L16.4731 21.3377Z" fill="white"/>
</g>
</svg>
