<svg width="56" height="56" viewBox="0 0 56 56" fill="none" xmlns="http://www.w3.org/2000/svg">
<g opacity="0.5">
<rect width="56" height="56" rx="28" fill="#071A21"/>
<path d="M33.0591 25.1586C32.8652 23.1419 31.1244 22.4661 28.9246 22.2733V19.4748H27.2223V22.1986C26.7754 22.1986 26.3176 22.207 25.8634 22.2167V19.4748H24.1612L24.16 22.2709C23.7913 22.2781 23.4287 22.2853 23.0757 22.2853V22.2769L20.7278 22.2757V24.0948C20.7278 24.0948 21.9855 24.0707 21.9638 24.0936C22.6541 24.0936 22.8782 24.4936 22.9432 24.8393V28.027C22.9914 28.027 23.0528 28.0294 23.1227 28.039H22.9432L22.942 32.5049C22.9119 32.7217 22.7842 33.0675 22.3023 33.0687C22.324 33.088 21.0651 33.0687 21.0651 33.0687L20.7266 35.1023H22.9432C23.3552 35.1023 23.7612 35.1095 24.1588 35.1119L24.16 37.9418H25.861V35.142C26.3272 35.1516 26.779 35.1553 27.2211 35.1553L27.2199 37.9418H28.9222V35.1179C31.7846 34.9541 33.7904 34.2325 34.0386 31.5435C34.2397 29.3787 33.2218 28.4113 31.5966 28.021C32.5857 27.5198 33.2037 26.6343 33.0591 25.1586ZM30.6762 31.2086C30.6762 33.3229 27.0561 33.0832 25.9008 33.0832V29.3329C27.0561 29.3353 30.6762 29.004 30.6762 31.2086ZM29.8835 25.9188C29.8835 27.8427 26.8621 27.6174 25.9008 27.6186V24.2189C26.8633 24.2189 29.8847 23.9129 29.8835 25.9188Z" fill="white"/>
<path d="M22.9453 27.9519H23.1983V28.1386H22.9453V27.9519Z" fill="white"/>
</g>
</svg>
