<svg width="56" height="56" viewBox="0 0 56 56" fill="none" xmlns="http://www.w3.org/2000/svg">
<g opacity="0.8">
<rect width="56" height="56" rx="28" fill="#071A21"/>
<path d="M21.2644 26.4443L27.1135 20.5952L32.9654 26.4468L36.3687 23.0435L27.1135 13.7886L17.8614 23.0407L21.2645 26.444L21.2644 26.4443ZM12.0547 28.8474L15.4581 25.4435L18.8613 28.8467L15.4579 32.2501L12.0547 28.8474ZM21.2644 31.2509L27.1135 37.0997L32.9653 31.2482L36.3704 34.6497L36.3687 34.6515L27.1135 43.9063L17.8614 34.6541L17.8566 34.6493L21.2648 31.2506L21.2644 31.2509ZM35.3657 28.8489L38.7692 25.4455L42.1723 28.8486L38.769 32.252L35.3657 28.8489Z" fill="white"/>
<path d="M30.5633 28.8448H30.5648L27.1115 25.3914L24.5591 27.9431L24.2658 28.2364L23.6611 28.8413L23.6562 28.846L23.6611 28.8509L27.1115 32.3017L30.565 28.8484L30.5667 28.8465L30.5635 28.8448" fill="white"/>
</g>
</svg>
