<svg width="56" height="56" viewBox="0 0 56 56" fill="none" xmlns="http://www.w3.org/2000/svg">
<g opacity="0.9">
<rect width="56" height="56" rx="28" fill="#071A21"/>
<path d="M19.9003 32.4075C20.0472 32.2671 20.2463 32.1882 20.4539 32.1882H39.6077C39.9566 32.1882 40.1312 32.592 39.8844 32.828L36.0997 36.4473C35.9528 36.5878 35.7537 36.6667 35.5461 36.6667H16.3923C16.0434 36.6667 15.8688 36.2629 16.1156 36.0268L19.9003 32.4075Z" fill="white"/>
<path d="M19.9003 18.886C20.0472 18.7455 20.2463 18.6667 20.4539 18.6667H39.6077C39.9566 18.6667 40.1312 19.0705 39.8844 19.3065L36.0997 22.9258C35.9528 23.0663 35.7537 23.1451 35.5461 23.1451H16.3923C16.0434 23.1451 15.8688 22.7413 16.1156 22.5053L19.9003 18.886Z" fill="white"/>
<path d="M36.0997 25.6037C35.9528 25.4633 35.7537 25.3844 35.5461 25.3844H16.3923C16.0434 25.3844 15.8688 25.7882 16.1156 26.0242L19.9003 29.6435C20.0472 29.784 20.2463 29.8629 20.4539 29.8628H39.6077C39.9566 29.8628 40.1312 29.459 39.8844 29.223L36.0997 25.6037Z" fill="white"/>
</g>
</svg>
