<svg width="56" height="56" viewBox="0 0 56 56" fill="none" xmlns="http://www.w3.org/2000/svg">
<g opacity="0.8">
<rect width="56" height="56" rx="28" fill="#071A21"/>
<path d="M34.1107 23.885C33.6678 23.6241 33.0922 23.6241 32.6052 23.885L29.1513 25.8858L26.8044 27.1907L23.3505 29.1915C22.9077 29.4525 22.3321 29.4525 21.845 29.1915L19.0996 27.6256C18.6568 27.3647 18.3469 26.8863 18.3469 26.3643V23.2761C18.3469 22.7541 18.6125 22.2757 19.0996 22.0147L21.8007 20.4924C22.2435 20.2314 22.8192 20.2314 23.3063 20.4924L26.0074 22.0147C26.4502 22.2757 26.7601 22.7541 26.7601 23.2761V25.2769L29.107 23.9285V21.9277C29.107 21.4058 28.8414 20.9273 28.3542 20.6664L23.3505 17.7956C22.9077 17.5347 22.3321 17.5347 21.845 17.7956L16.7528 20.6664C16.2657 20.9273 16 21.4058 16 21.9277V27.7127C16 28.2346 16.2657 28.7131 16.7528 28.9741L21.845 31.8448C22.2878 32.1057 22.8635 32.1057 23.3505 31.8448L26.8044 29.8874L29.1513 28.5391L32.6052 26.5818C33.048 26.3208 33.6236 26.3208 34.1107 26.5818L36.8118 28.1041C37.2545 28.3651 37.5645 28.8436 37.5645 29.3655V32.4537C37.5645 32.9757 37.2989 33.4541 36.8118 33.7151L34.1107 35.2809C33.6678 35.5419 33.0922 35.5419 32.6052 35.2809L29.9041 33.7586C29.4612 33.4976 29.1513 33.0191 29.1513 32.4972V30.4964L26.8044 31.8448V33.8455C26.8044 34.3675 27.0701 34.846 27.5571 35.1069L32.6494 37.9776C33.0922 38.2386 33.6678 38.2386 34.1549 37.9776L39.2472 35.1069C39.69 34.846 40 34.3675 40 33.8455V28.0606C40 27.5387 39.7343 27.0603 39.2472 26.7993L34.1107 23.885Z" fill="white"/>
</g>
</svg>
