<svg width="56" height="56" viewBox="0 0 56 56" fill="none" xmlns="http://www.w3.org/2000/svg">
<g opacity="0.9">
<rect width="56" height="56" rx="28" fill="#071A21"/>
<path d="M28.167 14.6667V24.4826C28.167 24.5242 28.1254 24.5659 28.0837 24.5659C27.792 24.6933 27.542 24.8195 27.2503 24.9457C26.8753 25.1136 26.4586 25.2826 26.0836 25.4933L24.7085 26.1243L23.5835 26.6303L22.2084 27.2625C21.8334 27.4315 21.4584 27.5994 21.0417 27.8101C20.75 27.9363 20.4167 28.1054 20.125 28.2316C20.0833 28.2316 20.0833 28.2732 20.0417 28.2316H20C20.125 28.0208 20.25 27.8518 20.375 27.6422C21.0417 26.5041 21.7501 25.3671 22.4168 24.229C23.1251 23.0087 23.8752 21.786 24.5835 20.5645C25.2502 19.4276 25.9169 18.2906 26.5836 17.1953C27.0837 16.3513 27.5837 15.5524 28.042 14.7083C28.1254 14.7083 28.1254 14.6667 28.167 14.6667C28.167 14.6667 28.1254 14.6667 28.167 14.6667Z" fill="#8C8C8C"/>
<path d="M36.2504 28.2316C35.6253 28.653 34.9586 29.0316 34.3336 29.4102C32.2919 30.6329 30.2918 31.8127 28.25 33.0342C28.2083 33.0342 28.2083 33.0759 28.1667 33.0759C28.125 33.0759 28.125 33.0342 28.125 33.0342V24.566C28.125 24.5243 28.1667 24.5243 28.2083 24.5243C28.375 24.6076 28.5417 24.6933 28.75 24.7767C29.2501 25.0303 29.7917 25.241 30.2918 25.4934C30.7501 25.7041 31.1668 25.9148 31.6252 26.0827C32.0835 26.2934 32.5002 26.5041 32.9586 26.7149C33.3336 26.8839 33.7503 27.0518 34.1253 27.2625C34.5003 27.4316 34.917 27.5994 35.292 27.8101C35.5837 27.9363 35.8753 28.1054 36.2087 28.2316C36.2087 28.1899 36.2087 28.2316 36.2504 28.2316Z" fill="#141414"/>
<path d="M28.1644 41.3334C28.1228 41.3334 28.1644 41.3334 28.1644 41.3334C28.1228 41.3334 28.1228 41.3334 28.0811 41.2905C27.2477 40.1119 26.456 38.9737 25.6226 37.7939L23.1225 34.2557C22.3308 33.1187 21.4975 31.9817 20.7058 30.8007L20.0807 29.9162C20.0807 29.8745 20.0391 29.8745 20.0391 29.8328C20.0807 29.8328 20.0807 29.8745 20.1224 29.8745C21.2474 30.5483 22.4142 31.2222 23.5392 31.896C24.8309 32.6973 26.1643 33.4556 27.4561 34.2557C27.6644 34.3819 27.9144 34.508 28.1228 34.6342C28.1644 34.6342 28.1644 34.6771 28.1644 34.7188V41.3334Z" fill="#8C8C8C"/>
<path d="M20 27.7906C20 27.749 20 27.749 20 27.7906C20.4167 27.5799 20.8334 27.4121 21.2501 27.2013L22.8751 26.443C23.2918 26.2322 23.7085 26.0644 24.1252 25.8537C24.7085 25.5584 25.3336 25.306 25.9169 25.0108C26.3336 24.8417 26.7503 24.631 27.167 24.4631C27.4587 24.3369 27.7503 24.2107 28.042 24.0417C28.0837 24.0417 28.0837 24 28.1254 24V32.5932C28.0837 32.6361 28.0837 32.5932 28.042 32.5932C27.917 32.5099 27.792 32.467 27.7087 32.3825L20.0833 27.8335C20.0417 27.7906 20 27.7906 20 27.7906ZM36.1257 29.3502C36.1257 29.3919 36.1257 29.3919 36.0841 29.4336C33.6673 32.8885 31.2505 36.3005 28.8337 39.7555C28.5837 40.1341 28.3337 40.471 28.0837 40.8508V34.1516C28.6254 33.8147 29.1671 33.4778 29.7088 33.1837L36.0841 29.3919C36.0841 29.3502 36.1257 29.3502 36.1257 29.3502Z" fill="#3C3C3B"/>
<path d="M28.1641 24.5242V14.7107L36.1644 28.1065C36.2061 28.1482 36.2478 28.1899 36.2478 28.2327C36.0811 28.1494 35.9144 28.0637 35.7061 27.9803C35.4977 27.8958 35.2894 27.7696 35.081 27.6851C34.956 27.6434 34.831 27.5589 34.6644 27.516C34.456 27.4327 34.206 27.3053 33.9977 27.222C33.8727 27.1791 33.7476 27.0958 33.6226 27.0529L32.7476 26.6743C32.5809 26.5898 32.4559 26.5481 32.2892 26.4636C32.0809 26.3791 31.8726 26.2529 31.6642 26.1684C31.5392 26.1267 31.4142 26.0422 31.2892 26.0005L30.4142 25.6207C30.2475 25.5374 30.1225 25.4945 29.9558 25.41C29.7475 25.3267 29.5391 25.1993 29.3308 25.1147C29.2058 25.0314 29.0391 24.9885 28.9141 24.9052L28.1641 24.5254V24.5242Z" fill="#343434"/>
</g>
</svg>
